<?xml version="1.0" standalone="no"?>
<!DOCTYPE svg PUBLIC "-//W3C//DTD SVG 20010904//EN"
 "http://www.w3.org/TR/2001/REC-SVG-20010904/DTD/svg10.dtd">
<svg version="1.0" xmlns="http://www.w3.org/2000/svg"
 width="512.000000pt" height="512.000000pt" viewBox="0 0 512.000000 512.000000"
 preserveAspectRatio="xMidYMid meet">
<metadata>
Created by potrace 1.14, written by Peter Selinger 2001-2017
</metadata>
<g transform="translate(0.000000,512.000000) scale(0.100000,-0.100000)"
fill="#000000" stroke="none">
<path d="M2399 4155 c-2 -2 -29 -6 -59 -9 -30 -3 -80 -10 -110 -16 -30 -6 -66
-14 -80 -16 -57 -11 -206 -67 -283 -105 -119 -59 -200 -119 -303 -225 -138
-140 -227 -282 -305 -488 -36 -97 -38 -100 -77 -112 -75 -22 -157 -94 -189
-166 -10 -22 -24 -39 -35 -39 -10 -1 -21 -2 -25 -3 -5 -1 -24 -6 -43 -10 -129
-30 -230 -161 -233 -299 -1 -88 25 -156 84 -221 26 -29 47 -55 45 -57 -2 -2
-7 -20 -10 -39 -6 -42 -16 -49 -119 -90 -45 -18 -104 -42 -132 -54 -27 -13
-115 -49 -194 -82 -158 -65 -178 -81 -167 -139 14 -70 221 -352 342 -465 173
-160 354 -273 536 -334 84 -28 96 -31 213 -51 76 -13 401 -14 465 -1 14 2 59
10 100 16 192 28 375 88 587 191 78 38 147 69 154 69 14 0 97 -39 119 -56 12
-9 161 -74 265 -115 74 -29 259 -76 365 -93 133 -21 443 -28 550 -13 65 9 221
50 276 73 126 52 283 145 379 225 137 114 294 299 397 467 39 63 47 83 43 111
-3 18 -8 37 -11 42 -6 10 -58 35 -176 83 -101 41 -702 292 -740 309 -23 10
-28 19 -29 47 -1 113 -10 241 -24 352 -13 106 -46 249 -87 378 -162 506 -526
830 -1028 916 -19 3 -46 8 -60 10 -31 6 -397 14 -401 9z"/>
</g>
</svg>
